<svg preserveAspectRatio="none" width="100%" height="100%" overflow="visible" style="display: block;" viewBox="0 0 444.862 319.383" fill="none" xmlns="http://www.w3.org/2000/svg">
<path id="Vector 89" d="M4.89589 3.40089C-6.36565 -23.8571 5.39572 189.39 4.89596 208.316V319.383H428.688C430.354 314.319 432.686 292.787 428.688 247.165C423.691 190.137 450.162 191.256 443.896 168.883C429.896 118.901 446.383 27.0587 420.396 3.40089C394.409 -20.2569 350.896 88.4007 309.896 56.4011C261.281 18.4583 207.323 88.4011 148.896 88.4011C126.483 88.4011 136.396 56.4011 108.896 56.4011C73.5613 56.4011 74.475 62.4986 53.896 56.4011C33.317 50.3037 12.3325 21.4009 4.89589 3.40089Z" fill="url(#paint0_linear_0_128)"/>
<defs>
<linearGradient id="paint0_linear_0_128" x1="193.803" y1="-101.599" x2="193.803" y2="306.433" gradientUnits="userSpaceOnUse">
<stop offset="0.100668" stop-color="#72F7D7"/>
<stop offset="0.683625" stop-color="#03478E"/>
</linearGradient>
</defs>
</svg>
