<svg preserveAspectRatio="none" width="100%" height="100%" overflow="visible" style="display: block;" viewBox="0 0 261.639 29" fill="none" xmlns="http://www.w3.org/2000/svg">
<g id="Group 118">
<path id="Vector" d="M164.537 2.95258C164.71 2.9523 164.882 2.98454 165.043 3.04745C165.203 3.11036 165.349 3.20271 165.472 3.31922C165.594 3.43573 165.692 3.5741 165.758 3.72643C165.825 3.87876 165.859 4.04204 165.859 4.20695V24.7925C165.859 25.1251 165.72 25.4441 165.472 25.6793C165.225 25.9145 164.889 26.0467 164.539 26.0469V26.0469C164.189 26.0467 163.853 25.9145 163.606 25.6793C163.358 25.4441 163.219 25.1251 163.219 24.7925V4.20695C163.219 3.87464 163.358 3.55591 163.605 3.32073C163.852 3.08556 164.187 2.95315 164.537 2.95258V2.95258Z" fill="var(--fill-0, white)"/>
<path id="Vector_2" d="M159.096 6.71449C159.446 6.71449 159.782 6.84657 160.029 7.08167C160.277 7.31678 160.416 7.63565 160.416 7.96814V21.0318C160.416 21.1965 160.382 21.3596 160.315 21.5117C160.249 21.6639 160.152 21.8022 160.029 21.9187C159.907 22.0352 159.762 22.1276 159.601 22.1906C159.441 22.2537 159.27 22.2861 159.096 22.2861V22.2861C158.746 22.2861 158.411 22.154 158.163 21.9187C157.915 21.6835 157.776 21.3645 157.776 21.0318V7.96814C157.777 7.63558 157.916 7.31671 158.163 7.08163C158.411 6.84654 158.746 6.71449 159.096 6.71449V6.71449Z" fill="var(--fill-0, white)"/>
<path id="Vector_3" d="M153.656 4.3107C154.006 4.31089 154.341 4.44313 154.589 4.67834C154.836 4.91356 154.975 5.23251 154.975 5.56506V23.4353C154.975 23.7678 154.836 24.0867 154.589 24.3218C154.341 24.5569 154.006 24.689 153.656 24.689C153.483 24.6891 153.311 24.6567 153.151 24.5937C152.991 24.5308 152.845 24.4385 152.723 24.322C152.6 24.2056 152.503 24.0674 152.436 23.9152C152.37 23.7631 152.336 23.6 152.336 23.4353V5.56506C152.336 5.23238 152.475 4.91333 152.723 4.67809C152.97 4.44285 153.306 4.3107 153.656 4.3107Z" fill="var(--fill-0, white)"/>
<path id="Vector_4" d="M148.215 1.69117e-07C148.565 1.69117e-07 148.901 0.13216 149.148 0.367399C149.396 0.602638 149.535 0.921691 149.535 1.25437V27.7464C149.535 27.911 149.501 28.0741 149.434 28.2263C149.368 28.3784 149.271 28.5167 149.148 28.6331C149.026 28.7495 148.88 28.8418 148.72 28.9048C148.56 28.9677 148.388 29.0001 148.215 29C147.865 29 147.529 28.8679 147.282 28.6328C147.035 28.3977 146.896 28.0788 146.896 27.7464V1.25437C146.896 0.921814 147.034 0.602866 147.282 0.367647C147.529 0.132428 147.865 0.000189014 148.215 1.69117e-07V1.69117e-07Z" fill="var(--fill-0, white)"/>
<path id="Vector_5" d="M142.772 8.69995C143.122 8.69995 143.458 8.8321 143.706 9.06734C143.953 9.30258 144.092 9.62164 144.092 9.95431V19.0462C144.092 19.2108 144.058 19.3739 143.992 19.5261C143.926 19.6782 143.828 19.8165 143.706 19.9329C143.583 20.0493 143.438 20.1416 143.277 20.2046C143.117 20.2675 142.946 20.2999 142.772 20.2998V20.2998C142.423 20.2998 142.087 20.1677 141.84 19.9326C141.592 19.6975 141.453 19.3786 141.453 19.0462V9.95431C141.453 9.62176 141.592 9.30281 141.839 9.0676C142.087 8.83238 142.422 8.70014 142.772 8.69995Z" fill="var(--fill-0, white)"/>
<path id="Vector_6" d="M227.757 8.69995C228.107 8.69995 228.443 8.8321 228.691 9.06734C228.938 9.30258 229.077 9.62164 229.077 9.95431V19.0462C229.077 19.2108 229.043 19.3739 228.977 19.5261C228.91 19.6782 228.813 19.8165 228.691 19.9329C228.568 20.0493 228.422 20.1416 228.262 20.2046C228.102 20.2675 227.931 20.2999 227.757 20.2998V20.2998C227.407 20.2998 227.072 20.1677 226.824 19.9326C226.577 19.6975 226.438 19.3786 226.438 19.0462V9.95431C226.438 9.62176 226.577 9.30281 226.824 9.0676C227.072 8.83238 227.407 8.70014 227.757 8.69995Z" fill="var(--fill-0, white)"/>
<path id="Vector_7" d="M136.982 22.2857H137.687C138.221 22.2857 138.654 21.8743 138.654 21.3668V7.63358C138.654 7.1261 138.221 6.71471 137.687 6.71471H136.982C136.448 6.71471 136.015 7.1261 136.015 7.63358V21.3668C136.015 21.8743 136.448 22.2857 136.982 22.2857Z" fill="var(--fill-0, white)"/>
<path id="Vector_8" d="M221.966 22.2857H222.672C223.206 22.2857 223.639 21.8743 223.639 21.3668V7.63358C223.639 7.1261 223.206 6.71471 222.672 6.71471H221.966C221.432 6.71471 221 7.1261 221 7.63358V21.3668C221 21.8743 221.432 22.2857 221.966 22.2857Z" fill="var(--fill-0, white)"/>
<path id="Vector_9" d="M131.752 26.0474H132.036C132.686 26.0474 133.213 25.5464 133.213 24.9283V4.07068C133.213 3.45266 132.686 2.95165 132.036 2.95165H131.752C131.101 2.95165 130.574 3.45266 130.574 4.07068V24.9283C130.574 25.5464 131.101 26.0474 131.752 26.0474Z" fill="var(--fill-0, white)"/>
<path id="Vector_10" d="M202.177 26.0474H202.461C203.112 26.0474 203.639 25.5464 203.639 24.9283V4.07068C203.639 3.45266 203.112 2.95165 202.461 2.95165H202.177C201.527 2.95165 201 3.45266 201 4.07068V24.9283C201 25.5464 201.527 26.0474 202.177 26.0474Z" fill="var(--fill-0, white)"/>
<path id="Vector_11" d="M207.177 26.0474H207.461C208.112 26.0474 208.639 25.5464 208.639 24.9283V4.07068C208.639 3.45266 208.112 2.95165 207.461 2.95165H207.177C206.527 2.95165 206 3.45266 206 4.07068V24.9283C206 25.5464 206.527 26.0474 207.177 26.0474Z" fill="var(--fill-0, white)"/>
<path id="Vector_12" d="M250.177 26.0474H250.461C251.112 26.0474 251.639 25.5464 251.639 24.9283V4.07068C251.639 3.45266 251.112 2.95165 250.461 2.95165H250.177C249.527 2.95165 249 3.45266 249 4.07068V24.9283C249 25.5464 249.527 26.0474 250.177 26.0474Z" fill="var(--fill-0, white)"/>
<path id="Vector_13" d="M212.177 26.0474H212.461C213.112 26.0474 213.639 25.5464 213.639 24.9283V4.07068C213.639 3.45266 213.112 2.95165 212.461 2.95165H212.177C211.527 2.95165 211 3.45266 211 4.07068V24.9283C211 25.5464 211.527 26.0474 212.177 26.0474Z" fill="var(--fill-0, white)"/>
<path id="Vector_14" d="M255.177 26.0474H255.461C256.112 26.0474 256.639 25.5464 256.639 24.9283V4.07068C256.639 3.45266 256.112 2.95165 255.461 2.95165H255.177C254.527 2.95165 254 3.45266 254 4.07068V24.9283C254 25.5464 254.527 26.0474 255.177 26.0474Z" fill="var(--fill-0, white)"/>
<path id="Vector_15" d="M217.177 26.0474H217.461C218.112 26.0474 218.639 25.5464 218.639 24.9283V4.07068C218.639 3.45266 218.112 2.95165 217.461 2.95165H217.177C216.527 2.95165 216 3.45266 216 4.07068V24.9283C216 25.5464 216.527 26.0474 217.177 26.0474Z" fill="var(--fill-0, white)"/>
<path id="Vector_16" d="M260.177 26.0474H260.461C261.112 26.0474 261.639 25.5464 261.639 24.9283V4.07068C261.639 3.45266 261.112 2.95165 260.461 2.95165H260.177C259.527 2.95165 259 3.45266 259 4.07068V24.9283C259 25.5464 259.527 26.0474 260.177 26.0474Z" fill="var(--fill-0, white)"/>
<path id="Vector_17" d="M126.453 0C126.803 0.000188845 127.139 0.132428 127.386 0.367647C127.634 0.602866 127.773 0.921815 127.773 1.25437V27.7464C127.773 28.0788 127.634 28.3977 127.386 28.6328C127.139 28.8679 126.803 29 126.453 29C126.28 29.0001 126.108 28.9677 125.948 28.9048C125.788 28.8418 125.643 28.7495 125.52 28.6331C125.397 28.5167 125.3 28.3784 125.234 28.2263C125.167 28.0741 125.133 27.911 125.133 27.7464V1.25437C125.133 0.921691 125.272 0.602639 125.52 0.367399C125.767 0.13216 126.103 0 126.453 0Z" fill="var(--fill-0, white)"/>
<path id="Vector_18" d="M120.799 24.689H121.226C121.837 24.689 122.332 24.2183 122.332 23.6376V5.36205C122.332 4.7814 121.837 4.31069 121.226 4.31069H120.799C120.188 4.31069 119.693 4.7814 119.693 5.36205V23.6376C119.693 24.2183 120.188 24.689 120.799 24.689Z" fill="var(--fill-0, white)"/>
<path id="Vector_19" d="M196.861 24.689H197.287C197.898 24.689 198.394 24.2183 198.394 23.6376V5.36205C198.394 4.7814 197.898 4.31069 197.287 4.31069H196.861C196.25 4.31069 195.754 4.7814 195.754 5.36205V23.6376C195.754 24.2183 196.25 24.689 196.861 24.689Z" fill="var(--fill-0, white)"/>
<path id="Vector_20" d="M115.219 22.2857H115.925C116.459 22.2857 116.892 21.8743 116.892 21.3668V7.63358C116.892 7.1261 116.459 6.71471 115.925 6.71471H115.219C114.685 6.71471 114.252 7.1261 114.252 7.63358V21.3668C114.252 21.8743 114.685 22.2857 115.219 22.2857Z" fill="var(--fill-0, white)"/>
<path id="Vector_21" d="M191.281 22.2857H191.986C192.52 22.2857 192.953 21.8743 192.953 21.3668V7.63358C192.953 7.1261 192.52 6.71471 191.986 6.71471H191.281C190.747 6.71471 190.314 7.1261 190.314 7.63358V21.3668C190.314 21.8743 190.747 22.2857 191.281 22.2857Z" fill="var(--fill-0, white)"/>
<path id="Vector_22" d="M109.646 20.2998H110.617C111.078 20.2998 111.451 19.9449 111.451 19.507V9.49275C111.451 9.0549 111.078 8.69996 110.617 8.69996H109.646C109.186 8.69996 108.812 9.0549 108.812 9.49275V19.507C108.812 19.9449 109.186 20.2998 109.646 20.2998Z" fill="var(--fill-0, white)"/>
<path id="Vector_23" d="M185.708 20.2998H186.679C187.139 20.2998 187.513 19.9449 187.513 19.507V9.49275C187.513 9.0549 187.139 8.69996 186.679 8.69996H185.708C185.247 8.69996 184.874 9.0549 184.874 9.49275V19.507C184.874 19.9449 185.247 20.2998 185.708 20.2998Z" fill="var(--fill-0, white)"/>
<path id="Vector_24" d="M104.694 0C105.044 0.000188845 105.38 0.132428 105.627 0.367647C105.874 0.602866 106.013 0.921815 106.013 1.25437V27.7464C106.013 28.0788 105.874 28.3977 105.627 28.6328C105.379 28.8679 105.044 29 104.694 29C104.521 29.0001 104.349 28.9677 104.189 28.9048C104.029 28.8418 103.883 28.7495 103.761 28.6331C103.638 28.5167 103.541 28.3784 103.475 28.2263C103.408 28.0741 103.374 27.911 103.374 27.7464V1.25437C103.374 0.921691 103.513 0.602639 103.761 0.367399C104.008 0.13216 104.344 0 104.694 0Z" fill="var(--fill-0, white)"/>
<path id="Vector_25" d="M180.756 0C181.106 0.000188845 181.441 0.132428 181.688 0.367647C181.936 0.602866 182.075 0.921815 182.075 1.25437V27.7464C182.075 28.0788 181.936 28.3977 181.688 28.6328C181.441 28.8679 181.105 29 180.756 29C180.582 29.0001 180.411 28.9677 180.25 28.9048C180.09 28.8418 179.945 28.7495 179.822 28.6331C179.7 28.5167 179.602 28.3784 179.536 28.2263C179.47 28.0741 179.436 27.911 179.436 27.7464V1.25437C179.436 0.921691 179.575 0.602639 179.822 0.367399C180.07 0.13216 180.405 0 180.756 0Z" fill="var(--fill-0, white)"/>
<path id="Vector_26" d="M233.32 0C233.669 0.000188845 234.005 0.132428 234.252 0.367647C234.5 0.602866 234.639 0.921815 234.639 1.25437V27.7464C234.639 28.0788 234.5 28.3977 234.252 28.6328C234.005 28.8679 233.669 29 233.32 29C233.146 29.0001 232.975 28.9677 232.814 28.9048C232.654 28.8418 232.509 28.7495 232.386 28.6331C232.264 28.5167 232.166 28.3784 232.1 28.2263C232.034 28.0741 232 27.911 232 27.7464V1.25437C232 0.921691 232.139 0.602639 232.386 0.367399C232.634 0.13216 232.969 0 233.32 0Z" fill="var(--fill-0, white)"/>
<path id="Vector_27" d="M99.2507 8.69995C99.6006 8.70014 99.9362 8.83238 100.184 9.0676C100.431 9.30281 100.57 9.62176 100.57 9.95431V19.0462C100.57 19.3786 100.431 19.6975 100.184 19.9326C99.9361 20.1677 99.6006 20.2998 99.2507 20.2998V20.2998C99.0774 20.2999 98.9057 20.2675 98.7456 20.2046C98.5854 20.1416 98.4399 20.0493 98.3173 19.9329C98.1948 19.8165 98.0975 19.6782 98.0312 19.5261C97.9648 19.3739 97.9307 19.2108 97.9307 19.0462V9.95431C97.9307 9.62164 98.0697 9.30258 98.3173 9.06734C98.5648 8.8321 98.9006 8.69995 99.2507 8.69995Z" fill="var(--fill-0, white)"/>
<path id="Vector_28" d="M175.312 8.69995C175.662 8.70014 175.998 8.83238 176.245 9.0676C176.492 9.30281 176.631 9.62176 176.631 9.95431V19.0462C176.631 19.3786 176.492 19.6975 176.245 19.9326C175.998 20.1677 175.662 20.2998 175.312 20.2998V20.2998C175.139 20.2999 174.967 20.2675 174.807 20.2046C174.647 20.1416 174.501 20.0493 174.379 19.9329C174.256 19.8165 174.159 19.6782 174.093 19.5261C174.026 19.3739 173.992 19.2108 173.992 19.0462V9.95431C173.992 9.62164 174.131 9.30258 174.379 9.06734C174.626 8.8321 174.962 8.69995 175.312 8.69995Z" fill="var(--fill-0, white)"/>
<path id="Vector_29" d="M93.8095 11.051C94.1596 11.051 94.4953 11.1832 94.7429 11.4184C94.9904 11.6537 95.1295 11.9727 95.1295 12.3054V16.6946C95.1295 16.8593 95.0954 17.0224 95.029 17.1745C94.9627 17.3267 94.8654 17.4649 94.7428 17.5813C94.6203 17.6977 94.4747 17.7901 94.3146 17.853C94.1544 17.916 93.9828 17.9483 93.8095 17.9482V17.9482C93.4596 17.9482 93.1241 17.8162 92.8766 17.5811C92.6292 17.346 92.4902 17.0271 92.4902 16.6946V12.3054C92.4902 11.9728 92.6292 11.6539 92.8766 11.4187C93.124 11.1834 93.4595 11.0512 93.8095 11.051Z" fill="var(--fill-0, white)"/>
<path id="Vector_30" d="M169.871 11.0515C170.221 11.0515 170.557 11.1837 170.804 11.4189C171.052 11.6541 171.191 11.9732 171.191 12.3059V16.6951C171.191 16.8598 171.157 17.0229 171.091 17.175C171.024 17.3271 170.927 17.4654 170.804 17.5818C170.682 17.6982 170.536 17.7906 170.376 17.8535C170.216 17.9165 170.044 17.9488 169.871 17.9487V17.9487C169.521 17.9487 169.186 17.8167 168.938 17.5816C168.691 17.3464 168.552 17.0276 168.552 16.6951V12.3059C168.552 11.9733 168.691 11.6544 168.938 11.4192C169.186 11.1839 169.521 11.0517 169.871 11.0515Z" fill="var(--fill-0, white)"/>
<path id="Vector_31" d="M238.319 11.0515C238.669 11.0515 239.005 11.1837 239.252 11.4189C239.5 11.6541 239.639 11.9732 239.639 12.3059V16.6951C239.639 16.8598 239.605 17.0229 239.538 17.175C239.472 17.3271 239.375 17.4654 239.252 17.5818C239.13 17.6982 238.984 17.7906 238.824 17.8535C238.664 17.9165 238.492 17.9488 238.319 17.9487V17.9487C237.969 17.9487 237.633 17.8167 237.386 17.5816C237.139 17.3464 237 17.0276 237 16.6951V12.3059C237 11.9733 237.138 11.6544 237.386 11.4192C237.633 11.1839 237.969 11.0517 238.319 11.0515Z" fill="var(--fill-0, white)"/>
<path id="Vector_32" d="M244.319 11.0515C244.669 11.0515 245.005 11.1837 245.252 11.4189C245.5 11.6541 245.639 11.9732 245.639 12.3059V16.6951C245.639 16.8598 245.605 17.0229 245.538 17.175C245.472 17.3271 245.375 17.4654 245.252 17.5818C245.13 17.6982 244.984 17.7906 244.824 17.8535C244.664 17.9165 244.492 17.9488 244.319 17.9487V17.9487C243.969 17.9487 243.633 17.8167 243.386 17.5816C243.139 17.3464 243 17.0276 243 16.6951V12.3059C243 11.9733 243.138 11.6544 243.386 11.4192C243.633 11.1839 243.969 11.0517 244.319 11.0515Z" fill="var(--fill-0, white)"/>
<path id="Vector_33" d="M88.2269 26.0474H88.511C89.1614 26.0474 89.6886 25.5464 89.6886 24.9283V4.07068C89.6886 3.45266 89.1614 2.95165 88.511 2.95165H88.2269C87.5765 2.95165 87.0493 3.45266 87.0493 4.07068V24.9283C87.0493 25.5464 87.5765 26.0474 88.2269 26.0474Z" fill="var(--fill-0, white)"/>
<path id="Vector_34" d="M82.9284 11.051C83.2784 11.0512 83.6139 11.1834 83.8613 11.4187C84.1087 11.6539 84.2477 11.9728 84.2477 12.3054V16.6946C84.2477 17.0271 84.1087 17.346 83.8613 17.5811C83.6139 17.8162 83.2783 17.9482 82.9284 17.9482C82.5785 17.9482 82.2428 17.8162 81.9953 17.5811C81.7478 17.346 81.6086 17.0272 81.6084 16.6946V12.3054C81.6086 11.9728 81.7477 11.6538 81.9952 11.4186C82.2427 11.1834 82.5784 11.0512 82.9284 11.051V11.051Z" fill="var(--fill-0, white)"/>
<path id="Vector_35" d="M77.3465 26.0474H77.6306C78.281 26.0474 78.8082 25.5464 78.8082 24.9283V4.07068C78.8082 3.45266 78.281 2.95165 77.6306 2.95165H77.3465C76.6962 2.95165 76.169 3.45266 76.169 4.07068V24.9283C76.169 25.5464 76.6962 26.0474 77.3465 26.0474Z" fill="var(--fill-0, white)"/>
<path id="Vector_36" d="M72.0468 8.69995C72.3969 8.69995 72.7326 8.8321 72.9802 9.06734C73.2277 9.30258 73.3668 9.62164 73.3668 9.95431V19.0462C73.3668 19.2108 73.3326 19.3739 73.2663 19.5261C73.2 19.6782 73.1027 19.8165 72.9801 19.9329C72.8576 20.0493 72.712 20.1416 72.5519 20.2046C72.3917 20.2675 72.2201 20.2999 72.0468 20.2998V20.2998C71.6969 20.2998 71.3614 20.1677 71.1139 19.9326C70.8665 19.6975 70.7276 19.3786 70.7276 19.0462V9.95431C70.7276 9.62176 70.8665 9.30281 71.1139 9.0676C71.3613 8.83238 71.6968 8.70014 72.0468 8.69995Z" fill="var(--fill-0, white)"/>
<path id="Vector_37" d="M66.6064 1.69117e-07C66.9565 1.69117e-07 67.2922 0.13216 67.5398 0.367399C67.7873 0.602638 67.9264 0.921691 67.9264 1.25437V27.7464C67.9264 27.911 67.8922 28.0741 67.8259 28.2263C67.7595 28.3784 67.6623 28.5167 67.5397 28.6331C67.4171 28.7495 67.2716 28.8418 67.1115 28.9048C66.9513 28.9677 66.7797 29.0001 66.6064 29V29C66.2565 29 65.921 28.8679 65.6736 28.6328C65.4262 28.3977 65.2872 28.0788 65.2872 27.7464V1.25437C65.2872 0.921814 65.4261 0.602866 65.6735 0.367647C65.9209 0.132428 66.2564 0.000189014 66.6064 1.69117e-07Z" fill="var(--fill-0, white)"/>
<path id="Vector_38" d="M61.1659 8.69995C61.516 8.70014 61.8516 8.83235 62.0991 9.06755C62.3466 9.30275 62.4857 9.62169 62.4859 9.95431V19.0462C62.4857 19.3787 62.3466 19.6976 62.0991 19.9327C61.8515 20.1678 61.5159 20.2998 61.1659 20.2998V20.2998C60.816 20.2998 60.4803 20.1678 60.2328 19.9327C59.9853 19.6976 59.8461 19.3787 59.8459 19.0462V9.95431C59.8461 9.62169 59.9853 9.30275 60.2328 9.06755C60.4803 8.83235 60.8159 8.70014 61.1659 8.69995V8.69995Z" fill="var(--fill-0, white)"/>
<path id="Vector_39" d="M55.5838 26.0474H55.8679C56.5183 26.0474 57.0455 25.5464 57.0455 24.9283V4.07068C57.0455 3.45266 56.5183 2.95165 55.8679 2.95165H55.5838C54.9335 2.95165 54.4063 3.45266 54.4063 4.07068V24.9283C54.4063 25.5464 54.9335 26.0474 55.5838 26.0474Z" fill="var(--fill-0, white)"/>
<path id="Vector_40" d="M50.2853 7.83778C50.6352 7.83778 50.9708 7.96986 51.2182 8.20497C51.4656 8.44007 51.6046 8.75895 51.6046 9.09143V19.9078C51.6047 20.0724 51.5706 20.2355 51.5044 20.3877C51.4381 20.5399 51.341 20.6782 51.2185 20.7947C51.0959 20.9112 50.9505 21.0036 50.7904 21.0666C50.6303 21.1297 50.4586 21.1621 50.2853 21.1621V21.1621C50.112 21.1622 49.9403 21.1298 49.7801 21.0668C49.6199 21.0038 49.4743 20.9114 49.3517 20.7949C49.2291 20.6784 49.1319 20.5401 49.0656 20.3879C48.9993 20.2357 48.9652 20.0725 48.9653 19.9078V9.09143C48.9653 8.92674 48.9995 8.76366 49.0658 8.61152C49.1322 8.45937 49.2294 8.32114 49.352 8.20472C49.4746 8.0883 49.6201 7.99597 49.7803 7.93301C49.9404 7.87005 50.112 7.83769 50.2853 7.83778Z" fill="var(--fill-0, white)"/>
<path id="Vector_41" d="M44.8442 1.69117e-07C45.1943 1.69117e-07 45.53 0.13216 45.7776 0.367399C46.0251 0.602638 46.1642 0.921691 46.1642 1.25437V27.7464C46.1642 27.911 46.13 28.0741 46.0637 28.2263C45.9973 28.3784 45.9001 28.5167 45.7775 28.6331C45.6549 28.7495 45.5094 28.8418 45.3493 28.9048C45.1891 28.9677 45.0175 29.0001 44.8442 29C44.4943 29 44.1587 28.8679 43.9113 28.6328C43.6639 28.3977 43.5249 28.0788 43.5249 27.7464V1.25437C43.5249 0.921814 43.6639 0.602866 43.9113 0.367647C44.1586 0.132428 44.4942 0.000189014 44.8442 1.69117e-07V1.69117e-07Z" fill="var(--fill-0, white)"/>
<path id="Vector_42" d="M39.4057 1.69117e-07C39.7557 0.00018889 40.0913 0.132405 40.3388 0.367603C40.5863 0.602802 40.7255 0.921749 40.7257 1.25437V27.7464C40.7255 28.0789 40.5863 28.3978 40.3388 28.6329C40.0913 28.868 39.7556 29 39.4057 29C39.0558 29 38.7202 28.8679 38.4728 28.6328C38.2254 28.3977 38.0864 28.0788 38.0864 27.7464V1.25437C38.0864 0.921814 38.2254 0.602866 38.4728 0.367647C38.7202 0.132428 39.0557 0.000189014 39.4057 1.69117e-07V1.69117e-07Z" fill="var(--fill-0, white)"/>
<path id="Vector_43" d="M33.9093 20.3779H34.018C34.7168 20.3779 35.2833 19.8396 35.2833 19.1756V9.82374C35.2833 9.15969 34.7168 8.62138 34.018 8.62138H33.9093C33.2105 8.62138 32.644 9.15969 32.644 9.82374V19.1756C32.644 19.8396 33.2105 20.3779 33.9093 20.3779Z" fill="var(--fill-0, white)"/>
<path id="Vector_44" d="M28.5226 1.69117e-07C28.8726 0.000189014 29.2082 0.132428 29.4555 0.367647C29.7029 0.602866 29.8419 0.921814 29.8419 1.25437V27.7464C29.8419 28.0788 29.7029 28.3977 29.4555 28.6328C29.2081 28.8679 28.8725 29 28.5226 29V29C28.3493 29.0001 28.1777 28.9677 28.0175 28.9048C27.8574 28.8418 27.7119 28.7495 27.5893 28.6331C27.4667 28.5167 27.3695 28.3784 27.3031 28.2263C27.2368 28.0741 27.2026 27.911 27.2026 27.7464V1.25437C27.2026 0.921691 27.3417 0.602638 27.5892 0.367399C27.8368 0.13216 28.1725 1.69117e-07 28.5226 1.69117e-07V1.69117e-07Z" fill="var(--fill-0, white)"/>
<path id="Vector_45" d="M23.0822 2.95259C23.2555 2.95259 23.4272 2.98504 23.5873 3.04809C23.7474 3.11114 23.8928 3.20354 24.0153 3.32003C24.1379 3.43652 24.235 3.5748 24.3013 3.72699C24.3675 3.87917 24.4016 4.04226 24.4015 4.20696V24.7925C24.4015 25.1251 24.2625 25.444 24.0151 25.6792C23.7677 25.9145 23.4322 26.0467 23.0822 26.0469V26.0469C22.7322 26.0469 22.3964 25.9147 22.1489 25.6795C21.9013 25.4442 21.7623 25.1252 21.7623 24.7925V4.20696C21.7622 4.04221 21.7962 3.87905 21.8625 3.72682C21.9288 3.57459 22.0261 3.43628 22.1487 3.31978C22.2712 3.20328 22.4168 3.11089 22.577 3.04789C22.7372 2.98488 22.9089 2.9525 23.0822 2.95259Z" fill="var(--fill-0, white)"/>
<path id="Vector_46" d="M16.3218 24.793C16.3218 25.4858 16.9126 26.0474 17.6414 26.0474C18.3702 26.0474 18.961 25.4858 18.961 24.793V4.20602C18.961 3.51325 18.3702 2.95165 17.6414 2.95165C16.9126 2.95165 16.3218 3.51325 16.3218 4.20602V24.793Z" fill="var(--fill-0, white)"/>
<path id="Vector_47" d="M6.76044 5.93132C7.1104 5.93151 7.44596 6.06375 7.69335 6.29897C7.94073 6.53419 8.0797 6.85313 8.0797 7.18569V21.8157C8.0797 22.1482 7.9407 22.467 7.69329 22.7022C7.44588 22.9373 7.11033 23.0693 6.76044 23.0693V23.0693C6.41048 23.0693 6.07486 22.9373 5.82733 22.7022C5.5798 22.4671 5.44065 22.1482 5.44045 21.8157V7.18497C5.44084 6.85248 5.58007 6.53372 5.82755 6.29867C6.07503 6.06363 6.41054 5.93151 6.76044 5.93132V5.93132Z" fill="var(--fill-0, white)"/>
<path id="Vector_48" d="M1.32 10.999C1.49331 10.999 1.66492 11.0315 1.82503 11.0945C1.98514 11.1576 2.13062 11.25 2.25313 11.3665C2.37565 11.483 2.4728 11.6213 2.53906 11.7734C2.60531 11.9256 2.63937 12.0887 2.63927 12.2534V16.7466C2.63937 16.9113 2.60531 17.0744 2.53906 17.2266C2.4728 17.3788 2.37565 17.5171 2.25313 17.6335C2.13062 17.75 1.98514 17.8424 1.82503 17.9055C1.66492 17.9685 1.49331 18.001 1.32 18.001V18.001C1.14663 18.0011 0.974943 17.9687 0.814748 17.9057C0.654552 17.8427 0.508987 17.7503 0.386393 17.6338C0.263799 17.5173 0.166569 17.379 0.100268 17.2268C0.0339657 17.0745 -9.83228e-05 16.9114 2.1316e-07 16.7466V12.2534C-9.83228e-05 12.0887 0.0339657 11.9255 0.100268 11.7733C0.166569 11.621 0.263799 11.4827 0.386393 11.3662C0.508987 11.2497 0.654552 11.1573 0.814748 11.0943C0.974943 11.0313 1.14663 10.999 1.32 10.999Z" fill="var(--fill-0, white)"/>
<path id="Vector_49" d="M12.2006 8.69995C12.5507 8.70014 12.8863 8.83235 13.1338 9.06755C13.3813 9.30275 13.5204 9.62169 13.5206 9.95431V19.0462C13.5204 19.3787 13.3813 19.6976 13.1337 19.9327C12.8862 20.1678 12.5506 20.2998 12.2006 20.2998V20.2998C11.8507 20.2998 11.5152 20.1677 11.2678 19.9326C11.0204 19.6975 10.8814 19.3786 10.8814 19.0462V9.95431C10.8814 9.62176 11.0203 9.30281 11.2677 9.0676C11.5151 8.83238 11.8507 8.70014 12.2006 8.69995V8.69995Z" fill="var(--fill-0, white)"/>
</g>
</svg>
