<svg width="26" height="49" viewBox="0 0 26 49" fill="none" xmlns="http://www.w3.org/2000/svg">
<path d="M11.5 0C13.4996 0.500521 13.2 6.00011 14 8C15 10.4999 16.9999 8.99997 16.5 7.5C16.8333 7.83344 17.4 9.00018 17 11C16.5 13.5 15.5 14 16.5 16.5C17.5 18.9999 19 16 19 15C19.5 15.6667 20.8649 17.628 20.5 20C19.5002 26.5 21.5 22.5 22 26C20.5 25.5 20.3 27.8 21.5 29C22.65 30.1501 23.504 32.4762 23.8408 35.0762C24.1364 36.12 24.6613 36.8387 26 35.5C25.5 39 25 43 22.5 45C19.863 47.1096 16.8616 48.5 13 48.5C9.27968 48.5 6 46.1738 4.5 45C3.43099 44.1634 1 43 0 36.5C0.883134 36.9415 1.76437 36.9362 1.95898 35.6025C1.9753 33.0957 2.30864 30.3827 3.5 28C4.00002 28.5 5.08333 29 5.5 26.5C5.99997 23.5001 4.5 20.0002 3.5 21.5C3.16665 21 2.79998 19.6 4 18C5.49998 16.0001 6.49997 15.4999 6 13.5C6.33336 13.8334 7 14.8001 7 16C7.33334 13.8333 8.2 9.49999 9 7.5C10 5.00006 12 4.49993 11.5 0ZM13 31.5C12.9037 31.5 12.8172 31.56 12.7842 31.6504C12.6032 32.1381 12.3341 32.8656 12.0723 33.5732C11.5583 34.9623 10.4634 36.0582 9.07422 36.5723C8.36663 36.8341 7.63915 37.1027 7.15137 37.2832C7.06084 37.3167 7 37.4034 7 37.5C7 37.5966 7.06084 37.6833 7.15137 37.7168C7.63915 37.8973 8.36663 38.1659 9.07422 38.4277C10.4634 38.9418 11.5583 40.0377 12.0723 41.4268C12.3341 42.1344 12.6032 42.8619 12.7842 43.3496C12.8172 43.44 12.9037 43.5 13 43.5C13.0963 43.5 13.1828 43.44 13.2158 43.3496C13.3968 42.8619 13.6659 42.1344 13.9277 41.4268C14.4417 40.0377 15.5366 38.9418 16.9258 38.4277C17.6334 38.1659 18.3609 37.8973 18.8486 37.7168C18.9392 37.6833 19 37.5966 19 37.5C19 37.4034 18.9392 37.3167 18.8486 37.2832C18.3609 37.1027 17.6334 36.8341 16.9258 36.5723C15.5366 36.0582 14.4417 34.9623 13.9277 33.5732C13.6659 32.8656 13.3968 32.1381 13.2158 31.6504C13.1828 31.56 13.0963 31.5 13 31.5Z" fill="white"/>
</svg>
