<svg width="176" height="252" viewBox="0 0 176 252" fill="none" xmlns="http://www.w3.org/2000/svg">
<circle cx="48" cy="48" r="45.5" fill="white" stroke="#03478E" stroke-width="5"/>
<circle cx="146" cy="133" r="28.5" fill="white" stroke="#03478E" stroke-width="3"/>
<circle cx="89" cy="225" r="26.25" fill="white" stroke="#03478E" stroke-width="1.5"/>
<path fill-rule="evenodd" clip-rule="evenodd" d="M47.7715 21.4085C45.9465 20.22 43.695 19.8716 41.6814 20.1898C39.6701 20.5077 37.5581 21.5541 36.3148 23.5643C35.833 24.3432 35.5256 25.1943 35.3897 26.0973C33.4328 25.9663 31.4521 26.5597 29.9637 27.8011C28.4564 29.0582 27.4935 30.9389 27.4935 33.2202C27.4935 33.9685 27.5963 34.736 27.8002 35.5195C27.0574 35.6767 26.3424 35.9511 25.6733 36.3288C23.4635 37.5763 21.9109 39.8447 21.2978 42.2992C20.6734 44.7986 20.9728 47.6949 22.7513 50.1759C23.6522 51.4329 24.8726 52.5009 26.4057 53.3406C26.0263 53.8484 25.7057 54.3959 25.4453 54.9694C24.3812 57.3119 24.3011 60.0876 25.114 62.5281C25.9384 65.0034 27.7439 67.2959 30.5906 68.3916C32.4458 69.1059 34.5654 69.2444 36.8888 68.7654C36.9949 69.9516 37.3186 71.0296 37.8746 71.9724C39.0649 73.9909 41.059 74.9426 43.0135 75.0649C44.8807 75.1816 46.9395 74.5231 48.5 73.1926C50.0605 74.5231 52.1192 75.1816 53.9865 75.0649C55.941 74.9426 57.935 73.9909 59.1255 71.9724C59.6812 71.0296 60.005 69.9516 60.1112 68.7654C62.4345 69.2444 64.5542 69.1059 66.4095 68.3916C69.256 67.2959 71.0615 65.0034 71.886 62.5281C72.699 60.0876 72.6187 57.3119 71.5547 54.9694C71.2942 54.3959 70.9737 53.8484 70.5942 53.3406C72.1275 52.5009 73.3477 51.4329 74.2487 50.1759C76.0272 47.6949 76.3265 44.7986 75.7022 42.2992C75.089 39.8447 73.5365 37.5763 71.3267 36.3288C70.6575 35.9511 69.9425 35.6767 69.1997 35.5195C69.4037 34.736 69.5065 33.9685 69.5065 33.2202C69.5065 30.9389 68.5437 29.0582 67.0362 27.8011C65.5477 26.5597 63.5672 25.9663 61.6102 26.0973C61.4745 25.1943 61.167 24.3432 60.6852 23.5643C59.4417 21.5541 57.33 20.5077 55.3185 20.1898C53.305 19.8716 51.0535 20.22 49.2285 21.4085C48.4652 21.9056 48.5347 21.9056 47.7715 21.4085ZM51.0082 67.7076V61.4001C51.0112 60.2016 51.2832 58.4424 51.9847 57.0776C52.6432 55.7961 53.4865 55.1451 54.7705 55.1451C56.1557 55.1451 57.2787 54.0214 57.2787 52.6349C57.2787 51.2486 56.1557 50.1246 54.7705 50.1246C53.3005 50.1246 52.054 50.4781 51.0082 51.0516V48.8491C51.0112 47.6506 51.2832 45.8916 51.9847 44.5266C52.6432 43.2451 53.4865 42.5941 54.7705 42.5941C56.1557 42.5941 57.2787 41.4703 57.2787 40.084C57.2787 38.6976 56.1557 37.5738 54.7705 37.5738C53.3005 37.5738 52.054 37.9271 51.0082 38.5007V27.5164C51.0125 26.5245 51.4177 25.9726 51.9647 25.6163C52.609 25.1968 53.571 24.9962 54.536 25.1487C55.5032 25.3016 56.1347 25.7457 56.4197 26.2067C56.6507 26.5801 56.9315 27.4104 56.2275 29.0545C55.7537 30.1605 56.131 31.4473 57.1267 32.1219C58.1225 32.7965 59.4562 32.6691 60.3065 31.8182C61.2257 30.8984 62.8907 30.8789 63.8247 31.6579C64.1987 31.9697 64.49 32.4422 64.49 33.2202C64.49 34.0637 64.137 35.444 62.7625 37.3699C62.0587 38.356 62.1592 39.7045 63.0015 40.5751C63.8437 41.4457 65.1872 41.5898 66.1947 40.9176C67.2752 40.1967 68.1415 40.2947 68.862 40.7015C69.7092 41.1797 70.508 42.2059 70.8355 43.5169C71.1517 44.7826 70.9807 46.1221 70.1725 47.2496C69.3665 48.3741 67.6912 49.6084 64.3912 50.1589C63.1707 50.3624 62.281 51.4261 62.2955 52.6641C62.3097 53.9021 63.224 54.9449 64.4487 55.1199C65.703 55.2991 66.5175 56.0111 66.988 57.0466C67.4915 58.1556 67.5682 59.6159 67.127 60.9406C66.6972 62.2306 65.8377 63.2329 64.6085 63.7059C63.3745 64.1809 61.3497 64.2804 58.3167 62.9006C57.4402 62.5019 56.4132 62.6406 55.6735 63.2571C54.9337 63.8739 54.612 64.8599 54.8455 65.7946C55.1552 67.0349 55.667 69.9296 53.6735 70.0544C52.296 70.1404 51.0155 69.0919 51.0082 67.7076ZM45.9917 27.5164C45.9875 26.5245 45.5822 25.9726 45.0352 25.6163C44.391 25.1968 43.4289 24.9962 42.4639 25.1487C41.4967 25.3016 40.8653 25.7457 40.5802 26.2067C40.3492 26.5801 40.0685 27.4104 40.7725 29.0545C41.2461 30.1605 40.8689 31.4473 39.8733 32.1219C38.8776 32.7965 37.5437 32.6691 36.6935 31.8182C35.7744 30.8984 34.1091 30.8789 33.1751 31.6579C32.8013 31.9697 32.51 32.4422 32.51 33.2202C32.51 34.0637 32.8629 35.444 34.2375 37.3699C34.9413 38.356 34.8407 39.7045 33.9984 40.5751C33.1561 41.4457 31.8126 41.5898 30.8051 40.9176C29.7247 40.1967 28.8585 40.2947 28.138 40.7015C27.2908 41.1797 26.492 42.2059 26.1645 43.5169C25.8483 44.7826 26.0192 46.1221 26.8274 47.2496C27.6335 48.3741 29.3087 49.6084 32.6088 50.1589C33.8291 50.3624 34.7189 51.4261 34.7045 52.6641C34.6902 53.9021 33.7759 54.9449 32.5512 55.1199C31.297 55.2991 30.4825 56.0111 30.0121 57.0466C29.5085 58.1556 29.4318 59.6159 29.873 60.9406C30.3027 62.2306 31.1622 63.2329 32.3914 63.7059C33.6255 64.1809 35.6504 64.2804 38.6832 62.9006C39.5597 62.5019 40.5868 62.6406 41.3266 63.2571C42.0663 63.8739 42.388 64.8599 42.1545 65.7946C41.8447 67.0349 41.3331 69.9296 43.3264 70.0544C44.704 70.1404 45.9845 69.0919 45.9917 67.7076V67.6961V61.4011C45.9887 60.2026 45.717 58.4429 45.0152 57.0776C44.3567 55.7961 43.5135 55.1451 42.2294 55.1451C40.8441 55.1451 39.7211 54.0214 39.7211 52.6349C39.7211 51.2486 40.8441 50.1246 42.2294 50.1246C43.6995 50.1246 44.946 50.4781 45.9917 51.0516V48.8501C45.9887 47.6516 45.717 45.8919 45.0152 44.5266C44.3567 43.2451 43.5135 42.5941 42.2294 42.5941C40.8441 42.5941 39.7211 41.4703 39.7211 40.084C39.7211 38.6976 40.8441 37.5738 42.2294 37.5738C43.6995 37.5738 44.946 37.9271 45.9917 38.5007V27.5164Z" fill="#121212"/>
<path d="M146 125.126C149.521 125.125 152.375 122.272 152.376 118.75C152.375 115.229 149.521 112.376 146 112.375C142.478 112.376 139.624 115.229 139.624 118.75C139.624 122.271 142.478 125.125 146 125.126ZM142.779 115.53C143.606 114.704 144.739 114.197 146 114.196C147.261 114.196 148.394 114.704 149.221 115.53C150.047 116.357 150.554 117.489 150.555 118.75C150.554 120.011 150.046 121.144 149.221 121.97C148.394 122.796 147.261 123.304 146 123.305C144.739 123.304 143.606 122.796 142.779 121.97C141.953 121.144 141.445 120.011 141.445 118.75C141.445 117.489 141.953 116.356 142.779 115.53Z" fill="#121212"/>
<path d="M159.859 145.285L159.445 136.348L159.444 136.346C159.345 134.256 158.693 132.528 157.698 131.173C156.203 129.135 154.005 127.951 151.848 127.263C149.685 126.576 147.535 126.376 146 126.375C143.955 126.38 140.811 126.725 138.009 128.13C136.611 128.834 135.296 129.815 134.302 131.173C133.307 132.528 132.655 134.255 132.556 136.346L132.555 136.348L132.141 145.285H127.25V149.141H164.75V145.285H159.859ZM154.831 145.285L154.346 137.795C154.324 137.461 154.035 137.207 153.701 137.229C153.366 137.251 153.112 137.539 153.134 137.874L153.614 145.285H146.637V143.456C148.796 143.145 150.461 141.284 150.461 139.041V138.045C150.461 137.693 150.176 137.407 149.823 137.407C149.472 137.407 149.187 137.693 149.187 138.045V139.041C149.187 140.798 147.758 142.227 146 142.227C144.243 142.227 142.813 140.798 142.813 139.041V138.045C142.813 137.693 142.529 137.407 142.177 137.407C141.823 137.407 141.539 137.693 141.539 138.045V139.041C141.539 141.284 143.204 143.145 145.363 143.456V145.285H138.386L138.866 137.874C138.888 137.539 138.634 137.251 138.299 137.229C137.965 137.207 137.676 137.461 137.655 137.795L137.169 145.285H133.964L134.375 136.432L134.374 136.434C134.463 134.665 134.987 133.324 135.772 132.249C136.945 130.64 138.775 129.611 140.705 128.998C142.627 128.384 144.625 128.195 146 128.196C147.836 128.191 150.77 128.539 153.172 129.756C154.376 130.362 155.443 131.175 156.229 132.249C157.013 133.324 157.537 134.665 157.626 136.435L157.625 136.432L158.036 145.285H154.831V145.285Z" fill="#121212"/>
<path d="M146 132.984C144.86 132.984 143.935 133.91 143.935 135.051V138.887C143.935 140.029 144.86 140.953 146 140.953C147.14 140.953 148.067 140.029 148.067 138.887V135.051C148.067 133.91 147.14 132.984 146 132.984Z" fill="#121212"/>
<path d="M101.008 224.745V217.701C101.008 214.78 101.008 213.32 100.065 212.521C99.1213 211.722 97.6795 211.962 94.7957 212.443L93.3894 212.677C91.2016 213.042 90.1077 213.224 89.0039 213.224C87.9 213.224 86.8062 213.042 84.6184 212.677L83.212 212.443C80.3283 211.962 78.8864 211.722 77.9431 212.521C76.9998 213.32 76.9998 214.78 76.9998 217.701V224.745C76.9998 232.068 82.6536 235.622 86.201 237.131C87.1632 237.54 87.6443 237.745 89.0039 237.745C90.3634 237.745 90.8445 237.54 91.8067 237.131C95.354 235.622 101.008 232.068 101.008 224.745Z" stroke="#121212" stroke-width="1.5"/>
<path d="M81.6677 220.744C82.056 219.967 83.1038 219.41 84.3353 219.41C85.5669 219.41 86.6146 219.967 87.0029 220.744" stroke="#121212" stroke-width="1.5" stroke-linecap="round"/>
<path d="M91.0045 220.744C91.3927 219.967 92.4404 219.41 93.672 219.41C94.9037 219.41 95.9514 219.967 96.3396 220.744" stroke="#121212" stroke-width="1.5" stroke-linecap="round"/>
<path d="M84.3359 227.412C84.3359 227.412 85.7364 228.746 89.0042 228.746C92.272 228.746 93.6725 227.412 93.6725 227.412" stroke="#121212" stroke-width="1.5" stroke-linecap="round"/>
<path d="M126 111.844L121.172 118.328L82.6719 79.8281L87.5 73.3438L126 111.844Z" stroke="#03478E" stroke-width="3"/>
<path d="M123.103 151.501L127.722 155.5L101.167 201.5L95.4015 199.487L123.103 151.501Z" stroke="#03478E"/>
</svg>
