<svg width="212" height="106" viewBox="0 0 212 106" fill="none" xmlns="http://www.w3.org/2000/svg">
<path fill-rule="evenodd" clip-rule="evenodd" d="M29.3698 63.0527C28.8715 63.2978 28.2807 63.0705 28.0505 62.5277C27.8213 62.0024 28.0389 61.372 28.5372 61.1268C28.5372 61.1268 42.5841 53.1773 58.2856 44.5623C62.5221 42.2335 66.8764 39.8872 71.1109 37.6459C76.2263 34.9143 81.1398 32.3228 85.4394 30.134C93.9041 25.809 99.9173 22.9547 99.9173 22.9547C100.913 22.4644 102.061 22.4819 103.047 22.9897C103.047 22.9897 114.613 29.2584 127.612 36.6302C144.66 46.2958 164.135 57.7826 164.135 57.7826C164.628 58.0277 164.834 58.6752 164.595 59.2006C164.354 59.7259 163.759 59.936 163.266 59.6909C163.266 59.6909 142.754 50.463 125.086 42.1457C114.592 37.2078 105.13 32.5852 101.464 30.7816C99.1762 31.9198 94.4623 34.2488 88.4586 37.0855C84.1001 39.1517 79.0541 41.4452 73.7895 43.8266C69.4299 45.7877 64.9263 47.7841 60.5163 49.7102C44.1736 56.8368 29.3698 63.0527 29.3698 63.0527Z" fill="#03478E"/>
<path fill-rule="evenodd" clip-rule="evenodd" d="M29.7928 63.0526C29.3177 63.5604 28.5503 63.5429 28.0803 63.0526C27.6104 62.5448 27.6146 61.7222 28.0898 61.2319L46.7821 41.1303C47.2605 40.6225 47.9963 40.5347 48.5756 40.9024C48.5756 40.9024 53.2274 44.1243 59.5359 47.4863C62.0621 48.8346 64.9341 49.8325 67.6642 51.2858C68.7975 51.8812 69.8782 52.5993 70.9515 53.2647C76.5568 56.7667 81.6091 60.0762 83.9387 61.6346C88.3918 58.7454 102.4 49.7453 115.61 41.5856C120.726 38.4338 125.819 35.5968 129.997 32.9353C130.814 32.4099 131.593 31.8848 132.319 31.3595C137.794 27.3672 141.219 24.3905 141.219 24.3905C142.254 23.7251 143.607 24.0051 144.314 25.0557L147.779 29.3982L148.778 30.6588L147.943 31.3946L148.118 31.657C148.628 32.445 149.171 33.3029 149.75 34.1959C158.56 47.7313 174.46 71.9479 174.46 71.9479C174.849 72.5257 174.723 73.3312 174.179 73.7339C173.636 74.1542 172.879 74.0142 172.49 73.4364C172.49 73.4364 156.112 49.6048 146.914 36.3496C146.31 35.4741 145.731 34.6513 145.194 33.8809L145.011 33.6184L144.088 34.231L143.298 32.813L141.527 29.6611C139.789 30.5541 137.087 32.0249 133.825 33.951C133.055 34.4062 132.269 34.9142 131.465 35.457C127.353 38.2411 122.705 41.8305 117.765 45.2975C102.341 56.1013 85.3421 67.4652 85.3421 67.4652C84.4853 68.0255 83.4046 68.043 82.5374 67.5002C82.5374 67.5002 75.659 63.4381 68.0069 58.5528C66.9389 57.8699 65.8392 57.2046 64.7975 56.4341C62.2881 54.5781 60.0878 52.3892 57.7656 50.6732C53.5364 47.5564 49.7856 45.2277 48.0647 44.1946L29.7928 63.0526Z" fill="#03478E"/>
<path fill-rule="evenodd" clip-rule="evenodd" d="M210.518 90.2798C211.029 90.3498 211.4 90.8403 211.343 91.3832C211.286 91.926 210.823 92.3287 210.311 92.2762L191.884 90.6128C191.611 90.5778 191.351 90.4724 191.139 90.2798L172.783 75.0285L155.525 103.465C155.007 104.27 154.147 104.761 153.224 104.778C152.301 104.778 151.433 104.305 150.903 103.5C150.903 103.5 142.578 91.4531 132.091 75.9917C126.209 67.3242 119.639 57.606 113.468 48.3431C109.054 41.7243 104.849 35.3329 101.219 29.7822C97.2187 23.6712 93.9146 18.541 91.7785 15.2141C91.7785 15.2141 63.9939 52.8784 64.017 52.8433L26.1036 105.128C25.8565 105.496 25.4644 105.706 25.0481 105.706L9.97839 105.304C9.46222 105.304 9.04382 104.848 9.04382 104.305C9.04382 103.763 9.46222 103.308 9.97839 103.308L24.3564 102.922L59.7195 49.464C59.7268 49.464 59.7352 49.4465 59.7426 49.429L89.2166 6.73904C89.8862 5.81101 90.9354 5.26806 92.0413 5.28557C93.1472 5.32059 94.1764 5.89868 94.8124 6.86174C94.8124 6.86174 99.9783 14.4262 107.223 25.2999C110.902 30.8156 115.113 37.1891 119.464 43.8604C125.548 53.1758 131.913 63.0691 137.575 71.8942C144.432 82.5928 150.242 91.7508 153.265 96.531L170.577 70.5984C170.901 70.0906 171.411 69.7579 171.983 69.6703C172.554 69.5828 173.134 69.7579 173.58 70.1432L192.651 87.6708L210.518 90.2798Z" fill="#03478E"/>
<path fill-rule="evenodd" clip-rule="evenodd" d="M0.926566 68.4625C0.570191 68.6026 0.173865 68.41 0.0424587 68.0247C-0.088948 67.6395 0.0950212 67.2192 0.451396 67.0791L24.4137 57.4485C24.7574 57.326 25.1432 57.4138 25.3955 57.6939L48.0816 82.6108C50.101 81.4902 55.5591 78.4608 61.5534 75.0638C71.4856 69.4256 82.8833 62.8067 82.8833 62.8067C83.8347 62.299 84.989 62.5443 85.6817 63.4022C85.6817 63.4022 88.1049 66.1863 91.5341 70.3362C92.7083 71.7545 94.0014 73.3478 95.3364 75.0463C103.105 84.957 113.068 98.2647 115.949 102.117C117.413 101.224 120.046 99.6129 123.093 97.7043C131.282 92.5738 142.477 85.3946 142.477 85.3946C142.645 85.2896 142.838 85.2373 143.036 85.2198L188.53 85.2724C188.91 85.2724 189.221 85.6049 189.224 86.0077C189.227 86.4104 188.921 86.743 188.541 86.743L143.364 87.5313C141.68 88.6519 131.808 95.2006 124.507 100.156C119.937 103.255 116.385 105.759 116.385 105.759C115.717 106.179 114.851 106.039 114.342 105.409C114.342 105.409 100.951 90.0175 91.4857 78.5659C90.1086 76.8849 88.8365 75.2916 87.6959 73.8382C85.7616 71.3693 84.2058 69.338 83.2428 68.0598C79.6044 69.8458 70.8097 74.1533 62.9757 78.0755C55.207 81.9803 48.398 85.4823 48.398 85.4823C47.8955 85.7624 47.2868 85.64 46.9 85.2023L24.4694 59.5151L0.926566 68.4625Z" fill="#03478E"/>
<path d="M92.5347 1C95.6752 1.00014 98.3265 3.72923 98.3267 7.22949C98.3267 10.7299 95.6753 13.4598 92.5347 13.46C89.3939 13.46 86.7427 10.73 86.7427 7.22949C86.7428 3.72914 89.394 1 92.5347 1Z" fill="white" stroke="#03478E" stroke-width="2"/>
<path d="M142.041 21.7637C144.426 21.7637 146.439 23.8358 146.439 26.4922C146.439 29.1487 144.426 31.2207 142.041 31.2207C139.657 31.2205 137.645 29.1486 137.645 26.4922C137.645 23.8359 139.657 21.7638 142.041 21.7637Z" fill="white" stroke="#03478E" stroke-width="1.5"/>
<path d="M47.7068 37.334C49.3356 37.3341 50.7087 38.7491 50.7087 40.5615C50.7087 42.374 49.3356 43.789 47.7068 43.7891C46.0779 43.7891 44.7048 42.374 44.7048 40.5615C44.7049 38.7491 46.0779 37.334 47.7068 37.334Z" fill="white" stroke="#03478E"/>
</svg>
