<svg width="412" height="308" viewBox="0 0 412 308" fill="none" xmlns="http://www.w3.org/2000/svg">
<path d="M-6.99986 3.40088C-18.2614 -23.8571 -6.50004 189.39 -6.99979 208.316V319.383H416.793C418.459 314.319 420.791 292.787 416.793 247.165C411.795 190.137 438.267 191.256 432 168.883C418 118.901 434.488 27.0587 408.5 3.40088C382.513 -20.2569 339 88.4007 298 56.4011C249.386 18.4583 195.427 88.4011 137 88.4011C114.588 88.4011 124.501 56.4011 97.0002 56.4011C61.6656 56.4011 62.5793 62.4985 42.0002 56.4011C21.4212 50.3036 0.436774 21.4009 -6.99986 3.40088Z" fill="url(#paint0_linear_939_13706)"/>
<defs>
<linearGradient id="paint0_linear_939_13706" x1="181.908" y1="-101.599" x2="181.908" y2="306.433" gradientUnits="userSpaceOnUse">
<stop offset="0.100668" stop-color="#72F7D7"/>
<stop offset="0.683625" stop-color="#03478E"/>
</linearGradient>
</defs>
</svg>
