<svg width="412" height="726" viewBox="0 0 412 726" fill="none" xmlns="http://www.w3.org/2000/svg">
<path d="M-13.8327 3.40089C-25.0942 -23.8571 -6.50008 607.89 -6.99983 626.816V737.882H416.793C418.458 732.819 420.791 711.287 416.793 665.665C411.795 608.637 438.267 609.755 432 587.383C418 537.4 427.655 27.0587 401.667 3.40089C375.68 -20.2569 332.167 88.4007 291.167 56.4011C242.553 18.4583 188.594 88.4011 130.167 88.4011C107.755 88.4011 117.668 56.4011 90.1674 56.4011C54.8328 56.4011 55.7465 62.4986 35.1674 56.4011C14.5884 50.3036 -6.39602 21.4009 -13.8327 3.40089Z" fill="url(#paint0_linear_1069_23862)"/>
<defs>
<linearGradient id="paint0_linear_1069_23862" x1="181.908" y1="-259.099" x2="181.908" y2="724.933" gradientUnits="userSpaceOnUse">
<stop stop-color="#01172E"/>
<stop offset="1" stop-color="#03478E"/>
</linearGradient>
</defs>
</svg>
