<svg width="86" height="279" viewBox="0 0 86 279" fill="none" xmlns="http://www.w3.org/2000/svg">
<path d="M59.2109 185.963C68.9423 183.674 77.5689 185.908 82.3799 188.074C75.7934 197.654 59.5758 204.053 43.2588 191.99C48.928 190.371 52.4866 187.545 59.2109 185.963Z" fill="#528BC0" fill-opacity="0.72"/>
<g opacity="0.73">
<mask id="mask0_1161_23846" style="mask-type:alpha" maskUnits="userSpaceOnUse" x="0" y="174" width="85" height="104">
<path d="M41.3686 190.524C30.8301 181.795 10.5142 175.812 0.999634 174.977L1.00005 278H85.0001L84.9996 182.499C81.7375 195.038 61.3492 207.074 41.3686 190.524Z" fill="#D9D9D9"/>
</mask>
<g mask="url(#mask0_1161_23846)">
<path d="M43.001 1L85 29.6697L84.998 249.33L42.999 278L1 249.33L1.00197 29.6697L43.001 1Z" fill="#72B7F7"/>
</g>
</g>
<path d="M85.498 249.33C85.498 249.495 85.4166 249.65 85.2803 249.743L43.2812 278.413C43.1112 278.529 42.8868 278.529 42.7168 278.413L0.717773 249.743C0.581453 249.65 0.499999 249.495 0.5 249.33L0.501953 29.6699C0.501955 29.5048 0.583417 29.35 0.719727 29.2568L42.7188 0.586914L42.7852 0.548828C42.9442 0.472696 43.1345 0.485377 43.2832 0.586914L85.2822 29.2568C85.4185 29.35 85.5 29.5048 85.5 29.6699L85.498 249.33Z" fill="url(#paint0_linear_1161_23846)" fill-opacity="0.55" style="mix-blend-mode:color-dodge"/>
<path d="M85.498 249.33C85.498 249.495 85.4166 249.65 85.2803 249.743L43.2812 278.413C43.1112 278.529 42.8868 278.529 42.7168 278.413L0.717773 249.743C0.581453 249.65 0.499999 249.495 0.5 249.33L0.501953 29.6699C0.501955 29.5048 0.583417 29.35 0.719727 29.2568L42.7188 0.586914L42.7852 0.548828C42.9442 0.472696 43.1345 0.485377 43.2832 0.586914L85.2822 29.2568C85.4185 29.35 85.5 29.5048 85.5 29.6699L85.498 249.33Z" fill="url(#paint1_linear_1161_23846)" fill-opacity="0.85"/>
<path d="M85.498 249.33C85.498 249.495 85.4166 249.65 85.2803 249.743L43.2812 278.413C43.1112 278.529 42.8868 278.529 42.7168 278.413L0.717773 249.743C0.581453 249.65 0.499999 249.495 0.5 249.33L0.501953 29.6699C0.501955 29.5048 0.583417 29.35 0.719727 29.2568L42.7188 0.586914L42.7852 0.548828C42.9442 0.472696 43.1345 0.485377 43.2832 0.586914L85.2822 29.2568C85.4185 29.35 85.5 29.5048 85.5 29.6699L85.498 249.33Z" stroke="#72B7F7" stroke-linejoin="round"/>
<defs>
<linearGradient id="paint0_linear_1161_23846" x1="1" y1="60.6789" x2="84.9981" y2="60.2846" gradientUnits="userSpaceOnUse">
<stop stop-color="#72B7F7" stop-opacity="0.25"/>
<stop offset="0.0228399" stop-color="#72B7F7" stop-opacity="0.1"/>
<stop offset="0.733586" stop-color="#72B7F7" stop-opacity="0.75"/>
<stop offset="0.971154" stop-color="#72B7F7" stop-opacity="0.1"/>
<stop offset="1" stop-color="#72B7F7" stop-opacity="0.75"/>
</linearGradient>
<linearGradient id="paint1_linear_1161_23846" x1="85" y1="139.5" x2="1" y2="139.5" gradientUnits="userSpaceOnUse">
<stop stop-color="white" stop-opacity="0"/>
<stop offset="0.248308" stop-color="white" stop-opacity="0.75"/>
<stop offset="1" stop-color="white" stop-opacity="0"/>
</linearGradient>
</defs>
</svg>
