<svg preserveAspectRatio="none" width="100%" height="100%" overflow="visible" style="display: block;" viewBox="0 0 20.1563 22.8917" fill="none" xmlns="http://www.w3.org/2000/svg">
<path id="Ellipse 66" d="M17.2231 4.93805L14.2316 0L11.4509 5.05973L17.2231 4.93805ZM10.5339 2.39174V2.89174C11.4394 2.89174 12.3147 3.0174 13.1435 3.25188L13.2796 2.77076L13.4157 2.28964C12.4992 2.03035 11.5324 1.89174 10.5339 1.89174V2.39174ZM0.5 12.3917H1C1 7.14663 5.26686 2.89174 10.5339 2.89174V2.39174V1.89174C4.71777 1.89174 0 6.59115 0 12.3917H0.5ZM19.7 16.4658L19.2437 16.2613C17.7566 19.5796 14.4162 21.8917 10.5339 21.8917V22.3917V22.8917C14.823 22.8917 18.5133 20.3364 20.1563 16.6703L19.7 16.4658ZM10.5339 22.3917V21.8917C5.26686 21.8917 1 17.6368 1 12.3917H0.5H0C0 18.1923 4.71777 22.8917 10.5339 22.8917V22.3917Z" fill="var(--stroke-0, black)"/>
</svg>
