<svg preserveAspectRatio="none" width="100%" height="100%" overflow="visible" style="display: block;" viewBox="0 0 450.427 737.882" fill="none" xmlns="http://www.w3.org/2000/svg">
<path id="Vector 89" d="M3.62849 3.40089C-7.63304 -23.8571 10.9611 607.89 10.4613 626.816V737.882H434.254C435.92 732.819 438.252 711.287 434.254 665.665C429.256 608.637 455.728 609.755 449.461 587.383C435.461 537.4 445.116 27.0587 419.129 3.40089C393.141 -20.2569 349.629 88.4007 308.629 56.4011C260.014 18.4583 206.055 88.4011 147.629 88.4011C125.216 88.4011 135.129 56.4011 107.629 56.4011C72.2939 56.4011 73.2076 62.4986 52.6286 56.4011C32.0496 50.3036 11.0651 21.4009 3.62849 3.40089Z" fill="url(#paint0_linear_0_128)"/>
<defs>
<linearGradient id="paint0_linear_0_128" x1="199.369" y1="-259.099" x2="199.369" y2="724.933" gradientUnits="userSpaceOnUse">
<stop stop-color="#01172E"/>
<stop offset="1" stop-color="#03478E"/>
</linearGradient>
</defs>
</svg>
